:SAMPLES-PER-SECOND 24
:FULLY-SPECIFIED
:DEGREES
328
root  3.96167 37.7393 28.0426 3.44653 0.759216 0.210632
RightUpLeg  -32.3485 -2.61481 -0.792751
RightLeg  25.5024 -9.66587 -5.21089
RightFoot  1.98546 0.68556 -5.74084
RightToes  -2.08645e-008 3.77894e-005 6.81332e-007
Spine  -0.226144 -8.56437 -3.93894
Spine1  1.96819 -12.1753 19.5322
HEad  -22.6358 9.70405 -0.88019
LeftShoulder1  7.79489 -13.597 -39.41
LeftArm  14.819 0.0161409 -32.7126
LeftForeArm  162.826 -72.7811 -147.884
LeftHand  -0.136713 -4.46131 1.89822
RightShoulder  3.84211 6.45967 32.6786
RightArm  6.5908 -30.3755 29.2068
RightForeArm  100.975 80.4656 88.8097
RightHand  -0.102007 8.2912 -1.24521
LeftUpLeg  -1.03339 9.60799 14.2498
LeftLeg  52.7562 2.76528 4.12505
LeftFoot  22.4027 7.97033 -26.2236
LeftToes  1.24767e-006 1.47042e-008 1.32732e-009
329
root  3.49729 37.8709 29.1897 1.02429 -3.04196 2.4704
RightUpLeg  -29.9208 0.3847 -2.34895
RightLeg  28.6281 -8.55237 -5.26385
RightFoot  -0.104122 0.567314 -5.77047
RightToes  -2.08645e-008 3.77894e-005 6.81332e-007
Spine  0.561472 -7.84229 -2.13089
Spine1  3.31186 -10.8804 16.529
HEad  -21.0389 11.2647 -3.11937
LeftShoulder1  7.58638 -13.3943 -38.7549
LeftArm  14.5168 -1.12046 -31.6187
LeftForeArm  165.114 -72.1275 -149.423
LeftHand  -0.0324863 -4.70118 0.667228
RightShoulder  3.85914 6.47314 32.797
RightArm  6.84067 -27.7031 29.9248
RightForeArm  94.8446 80.3955 82.4041
RightHand  -0.0086483 8.05911 -0.450497
LeftUpLeg  -10.4444 9.99468 13.6075
LeftLeg  70.6495 -1.41536 -3.482
LeftFoot  24.5188 8.38942 -26.0368
LeftToes  1.24767e-006 1.47042e-008 1.32732e-009
330
root  2.97332 38.3944 30.3492 -2.07764 -8.24884 6.00165
RightUpLeg  -25.2851 4.88586 -4.74365
RightLeg  27.9078 -7.93953 -4.77152
RightFoot  -1.3267 0.567666 -6.57003
RightToes  -2.08645e-008 3.77894e-005 6.81332e-007
Spine  0.973549 -6.08415 -1.90112
Spine1  4.7018 -8.43556 12.0642
HEad  -19.4061 12.4579 -5.19889
LeftShoulder1  7.42042 -13.2243 -38.2426
LeftArm  13.1201 -0.619964 -30.5048
LeftForeArm  167.859 -70.7249 -152.068
LeftHand  0.0491084 -4.72653 -0.269512
RightShoulder  3.86532 6.50287 32.7437
RightArm  8.35169 -22.7397 30.6506
RightForeArm  81.3332 79.7894 68.4424
RightHand  -0.0729436 8.0114 -1.00824
LeftUpLeg  -19.8152 15.4742 12.7527
LeftLeg  86.4124 -0.361558 1.18202
LeftFoot  20.0521 6.31541 -22.6313
LeftToes  1.24767e-006 1.47042e-008 1.32732e-009
331
root  2.54774 38.8327 31.216 -6.125 -12.9937 9.94678
RightUpLeg  -20.6142 8.9608 -7.18938
RightLeg  27.0362 -7.27351 -4.24742
RightFoot  -2.06811 0.584576 -7.36377
RightToes  -2.08645e-008 3.77894e-005 6.81332e-007
Spine  3.58936 -4.35447 -2.03989
Spine1  4.46298 -5.87027 8.31434
HEad  -17.2408 13.394 -6.90655
LeftShoulder1  7.32285 -13.1052 -37.9841
LeftArm  11.5017 1.7038 -28.9668
LeftForeArm  170.234 -68.5628 -155.264
LeftHand  0.0661867 -4.58702 -0.480253
RightShoulder  3.83326 6.51413 32.3791
RightArm  11.53 -17.3158 31.409
RightForeArm  68.5405 78.5194 55.5222
RightHand  -0.31118 8.11299 -3.04553
LeftUpLeg  -30.3581 20.8498 12.1563
LeftLeg  98.7938 -1.33248 5.52797
LeftFoot  17.3939 4.93372 -19.5243
LeftToes  1.24767e-006 1.47042e-008 1.32732e-009
332
root  2.28199 39.1958 31.9745 -11.1301 -16.906 14.5064
RightUpLeg  -16.1304 12.0695 -10.1941
RightLeg  26.9064 -5.58411 -3.30547
RightFoot  -3.06113 0.523156 -7.49107
RightToes  -2.08645e-008 3.77894e-005 6.81332e-007
Spine  7.16172 -2.78071 -2.021
Spine1  3.6654 -3.29395 3.79913
HEad  -15.4821 13.6783 -7.72833
LeftShoulder1  7.16978 -12.9501 -37.488
LeftArm  10.2971 3.77224 -27.3107
LeftForeArm  171.927 -66.3746 -157.865
LeftHand  0.0583212 -4.45758 -0.402216
RightShoulder  3.80152 6.50874 32.0811
RightArm  14.6234 -12.4954 32.3633
RightForeArm  60.7703 77.1799 47.2151
RightHand  -0.314966 8.05584 -3.08843
LeftUpLeg  -41.5148 24.2088 11.8706
LeftLeg  108.418 -0.375497 0.305474
LeftFoot  16.5034 4.76674 -19.4944
LeftToes  1.24767e-006 1.47042e-008 1.32732e-009
333
root  2.16852 39.5406 32.8284 -16.6997 -20.9352 19.6594
RightUpLeg  -12.137 15.9112 -13.5852
RightLeg  27.1121 -3.88666 -2.39496
RightFoot  -4.15787 0.430845 -7.29711
RightToes  -2.08645e-008 3.77894e-005 6.81332e-007
Spine  9.49169 -1.16769 -1.33416
Spine1  4.22585 -0.472751 -1.83917
HEad  -14.5062 13.6881 -8.28401
LeftShoulder1  6.96506 -12.7572 -36.7702
LeftArm  9.13668 5.18563 -26.1392
LeftForeArm  173.321 -64.4971 -159.759
LeftHand  0.0958787 -4.4413 -0.847877
RightShoulder  3.73854 6.48183 31.5488
RightArm  17.4055 -7.80812 33.3176
RightForeArm  55.7845 75.9994 42.0023
RightHand  -0.256487 7.95323 -2.59894
LeftUpLeg  -51.7361 27.0983 12.781
LeftLeg  115.038 2.05068 -4.6929
LeftFoot  15.6737 5.09297 -21.386
LeftToes  1.24767e-006 1.47042e-008 1.32732e-009
334
root  2.12166 39.9154 33.7471 -22.7833 -24.5508 25.5464
RightUpLeg  -8.70643 19.8457 -17.242
RightLeg  27.3265 -2.71584 -1.75929
RightFoot  -4.59671 0.430918 -7.82395
RightToes  -2.08645e-008 3.77894e-005 6.81332e-007
Spine  10.9124 0.356308 -1.27473
Spine1  5.23754 2.02416 -6.45781
HEad  -13.6764 14.0977 -9.31126
LeftShoulder1  6.86146 -12.6278 -36.4812
LeftArm  8.07587 7.29199 -25.3257
LeftForeArm  174.89 -62.6179 -161.433
LeftHand  0.14612 -4.38192 -1.45423
RightShoulder  3.63242 6.43243 30.656
RightArm  20.6753 -3.24361 33.6063
RightForeArm  53.1062 75.3651 39.8421
RightHand  -0.236189 7.95203 -2.42458
LeftUpLeg  -60.4942 29.9922 14.4961
LeftLeg  117.168 1.28403 -2.92112
LeftFoot  18.9613 5.84431 -21.8035
LeftToes  1.24767e-006 1.47042e-008 1.32732e-009
335
root  2.0689 40.3409 34.5233 -29.1941 -26.2618 31.3787
RightUpLeg  -5.38071 21.6471 -21.0827
RightLeg  27.5791 -1.14478 -0.882965
RightFoot  -4.17515 0.504803 -8.48836
RightToes  -2.08645e-008 3.77894e-005 6.81332e-007
Spine  13.4903 1.31462 -2.62494
Spine1  4.76172 3.24193 -9.66478
HEad  -12.8288 14.9094 -10.6718
LeftShoulder1  6.88491 -12.6215 -36.6386
LeftArm  7.52024 10.4255 -24.4104
LeftForeArm  176.198 -60.7164 -162.909
LeftHand  0.157527 -4.22624 -1.62553
RightShoulder  3.52975 6.36272 29.8602
RightArm  23.8516 0.491948 33.2353
RightForeArm  52.1889 75.1501 39.1857
RightHand  -0.256539 8.082 -2.58182
LeftUpLeg  -67.3875 31.533 16.3277
LeftLeg  113.125 -0.669503 0.770364
LeftFoot  22.9955 6.75244 -22.0975
LeftToes  1.24767e-006 1.47042e-008 1.32732e-009
336
root  1.99399 40.7096 35.0377 -34.7927 -26.3579 35.6216
RightUpLeg  -2.5993 21.4151 -24.1481
RightLeg  28.5259 0.573918 0.106186
RightFoot  -3.11953 0.588901 -8.46617
RightToes  -2.08645e-008 3.77894e-005 6.81332e-007
Spine  16.8369 1.66738 -4.1175
Spine1  3.70101 3.43461 -12.1474
HEad  -12.3006 15.5784 -12.0101
LeftShoulder1  6.9241 -12.6778 -36.7295
LeftArm  7.5205 13.2591 -23.564
LeftForeArm  176.29 -59.3949 -163.77
LeftHand  0.152266 -4.16058 -1.57721
RightShoulder  3.46558 6.31026 29.3878
RightArm  25.9633 2.88195 32.531
RightForeArm  52.1527 75.1797 39.3259
RightHand  -0.240292 8.16342 -2.42813
LeftUpLeg  -71.3416 31.3019 18.6639
LeftLeg  102.863 -1.10802 3.08554
LeftFoot  23.0626 7.4666 -24.29
LeftToes  1.24767e-006 1.47042e-008 1.32732e-009
